# xmcd
#
# Track frame offsets: 
#        150
#        11352
#        22540
#        34651
#        45675
#        54046
#        64728
#        76785
#        88871
#        101405
#        113646
#        122910
#        135740
#        148776
#        161448
#        174956
#        187210
#        198663
#        211050
#        222881
#        233124
#        244878
#        253568
#        265450
#
# Disc length: 3694 seconds
#
# Revision: 0
# Processed by: cddbd v1.5.2PL0 Copyright (c) Steve Scherf et al.
# Submitted via: ExactAudioCopy v0.90b4
#
DISCID=430e6c18
DTITLE=Stonewall Jackson - Original Greatest Hits
DYEAR=2013
DGENRE=Country
TTITLE0=Life To Go
TTITLE1=Waterloo
TTITLE2=Smoke Along The Track
TTITLE3=Mary Don't You Weep
TTITLE4=Why I'm Walkin'
TTITLE5=Life Of A Poor Boy
TTITLE6=A Little Guy Called Joe
TTITLE7=A Wound Time Can't Erase
TTITLE8=Leona
TTITLE9=One Look At Heaven
TTITLE10=Can't Hang Up The Phone
TTITLE11=Old Showboat
TTITLE12=Wild Wild Wind
TTITLE13=B.J. The D.J.
TTITLE14=Don't Be Angry
TTITLE15=I Washed My Hands In Muddy Water
TTITLE16=The Minute Men (Are Turning In Their Graves)
TTITLE17=Blues Plus Booze (Means I Lose)
TTITLE18=Help Stamp Out Loneliness
TTITLE19=Promises And Hearts (Were Made To Break)
TTITLE20=Angry Words
TTITLE21="Never More" Quote The Raven
TTITLE22=Me And You And A Dog Named Boo
TTITLE23=Torn From The Pages Of Life
EXTD=
EXTT0=
EXTT1=
EXTT2=
EXTT3=
EXTT4=
EXTT5=
EXTT6=
EXTT7=
EXTT8=
EXTT9=
EXTT10=
EXTT11=
EXTT12=
EXTT13=
EXTT14=
EXTT15=
EXTT16=
EXTT17=
EXTT18=
EXTT19=
EXTT20=
EXTT21=
EXTT22=
EXTT23=
PLAYORDER=
